<?xml version="1.0" standalone="no"?>
<!DOCTYPE svg PUBLIC "-//W3C//DTD SVG 20010904//EN"
 "http://www.w3.org/TR/2001/REC-SVG-20010904/DTD/svg10.dtd">
<svg version="1.0" xmlns="http://www.w3.org/2000/svg"
 width="1024.000000pt" height="1024.000000pt" viewBox="0 0 1024.000000 1024.000000"
 preserveAspectRatio="xMidYMid meet">

<g transform="translate(0.000000,1024.000000) scale(0.100000,-0.100000)"
fill="#000000" stroke="none">
<path d="M2345 9883 c-22 -43 -66 -124 -98 -182 -79 -143 -79 -142 -20 -173
26 -14 111 -59 188 -100 77 -41 176 -94 220 -118 44 -23 103 -55 130 -70 71
-39 145 -79 260 -140 55 -29 129 -69 165 -90 36 -20 110 -61 165 -90 55 -29
186 -99 290 -155 105 -56 219 -118 255 -137 36 -19 109 -58 162 -87 l98 -53 2
-926 3 -927 43 -1 c23 -1 54 1 67 4 l25 4 0 177 0 176 53 35 c252 166 512 328
519 324 4 -3 8 -1321 8 -2930 l0 -2925 68 3 67 3 3 3253 c1 2256 5 3252 12
3252 10 0 81 -36 255 -130 90 -49 158 -85 410 -220 127 -67 264 -142 305 -165
41 -23 125 -68 185 -100 61 -32 133 -70 160 -85 28 -15 75 -41 105 -58 30 -16
105 -56 165 -89 61 -33 155 -84 210 -113 55 -29 105 -56 110 -60 23 -16 204
-110 212 -110 5 0 36 51 67 113 32 61 77 146 99 187 66 122 97 184 97 196 0 9
-88 64 -104 64 -3 0 -15 -18 -26 -40 -25 -49 -40 -57 -72 -37 -13 8 -54 31
-93 52 -38 20 -137 73 -220 117 -82 44 -163 88 -180 98 -16 10 -66 37 -110 60
-205 109 -231 123 -240 130 -5 4 -53 29 -105 56 -52 26 -127 67 -166 90 -39
23 -102 56 -140 75 -38 18 -89 45 -114 59 -62 36 -198 111 -235 129 -16 8 -79
42 -140 76 -60 34 -123 68 -140 77 -58 29 -250 131 -260 138 -10 8 -317 172
-370 199 -16 8 -32 17 -35 20 -3 3 -32 20 -65 37 -33 17 -91 48 -130 69 -121
66 -208 113 -270 145 -33 17 -73 39 -90 48 -16 10 -79 44 -140 76 -60 33 -157
85 -215 116 -174 94 -230 125 -345 185 -60 32 -114 61 -120 65 -12 8 -116 65
-230 125 -44 23 -98 53 -120 65 -22 12 -78 43 -125 68 -112 59 -210 112 -235
127 -42 26 -175 95 -183 95 -4 0 -25 -35 -47 -77z"/>
<path d="M6147 9804 c-2 -2 1 -28 8 -56 l11 -53 65 -23 c211 -76 416 -170 552
-255 70 -43 208 -146 333 -248 97 -80 245 -239 346 -374 171 -228 285 -445
374 -714 43 -130 50 -157 70 -262 45 -237 50 -299 48 -549 -2 -256 -8 -310
-65 -555 -28 -122 -65 -229 -133 -385 -20 -46 -36 -87 -36 -90 0 -11 -104
-193 -140 -244 -16 -25 -30 -47 -30 -50 0 -3 -36 -52 -80 -108 -44 -57 -80
-109 -80 -115 0 -13 61 -43 86 -43 20 0 180 220 244 335 139 250 235 499 280
730 7 33 16 71 20 85 13 38 28 168 41 335 15 198 -4 481 -41 625 -5 19 -23 96
-41 170 -87 381 -295 769 -574 1073 -170 185 -288 290 -440 392 -33 22 -61 43
-63 48 -2 4 -8 7 -14 7 -5 0 -33 15 -61 33 -79 52 -186 110 -247 136 -30 13
-71 30 -90 38 -19 8 -44 19 -55 23 -19 9 -188 67 -252 88 -17 6 -33 8 -36 6z"/>
<path d="M2175 6622 c-56 -2 -92 -7 -97 -15 -4 -7 -8 -177 -8 -379 0 -288 3
-368 13 -368 516 -2 2202 1 2205 5 3 2 5 28 6 57 l1 53 -1042 3 -1043 2 -1 23
c-3 96 -1 478 3 482 2 3 425 6 939 7 l934 3 3 68 3 67 -913 -2 c-502 -1 -953
-4 -1003 -6z"/>
<path d="M5102 6610 c-6 -4 -8 -63 -3 -108 1 -10 119 -12 574 -10 l572 3 0 59
0 59 -568 1 c-313 1 -572 -1 -575 -4z"/>
<path d="M5094 5966 c-3 -7 -4 -35 -2 -62 l3 -49 1025 0 1025 0 3 63 3 62
-1026 0 c-862 0 -1026 -2 -1031 -14z"/>
<path d="M4163 3198 l3 -2603 62 -3 c38 -2 62 1 62 8 0 5 0 1173 0 2595 0
1422 0 2590 0 2595 0 6 -28 10 -65 10 l-65 0 3 -2602z"/>
<path d="M6228 4747 c-10 -17 -41 -84 -71 -147 -30 -63 -61 -131 -70 -150 -9
-19 -35 -88 -57 -153 -54 -159 -55 -224 -4 -326 39 -79 87 -120 164 -141 131
-35 270 63 306 216 19 82 11 122 -61 319 -35 95 -169 393 -183 407 -4 4 -15
-7 -24 -25z"/>
</g>
</svg>
